<svg width="203" height="52" viewBox="0 0 203 52" fill="none" xmlns="http://www.w3.org/2000/svg">
<path d="M38.1858 21.9379C42.071 21.9379 42.9451 23.6254 42.9451 25.7302C42.9451 27.9612 41.8877 29.5596 38.2019 29.5596C34.5397 29.5596 33.4811 28.0541 33.4811 25.7302C33.4811 23.4434 34.635 21.9379 38.1858 21.9379Z" fill="#1A1A1A"/>
<path d="M78.7879 21.9379C82.673 21.9379 83.5471 23.6254 83.5471 25.7302C83.5471 27.9612 82.4886 29.5596 78.804 29.5596C75.1429 29.5596 74.0831 28.0541 74.0831 25.7302C74.0831 23.4434 75.237 21.9379 78.7879 21.9379Z" fill="#1A1A1A"/>
<path fill-rule="evenodd" clip-rule="evenodd" d="M3.78754 47.6667V3.77252H200.123V47.6667H3.78754ZM97.3604 45.1905H197.646V6.24871H97.3604V45.1905ZM38.2044 33.2961C45.1018 33.2961 48.0015 30.321 48.0015 25.6744C48.0015 20.9523 44.7354 18.1456 38.2044 18.1456C31.7737 18.1456 28.3888 21.1938 28.3888 25.6744C28.3888 30.7308 31.9396 33.2961 38.2044 33.2961ZM14.2237 18.4799V33.0733H28.1449V29.1869H19.2603V18.4799H14.2237ZM63.5816 33.0733L63.4516 31.6594C61.7667 32.8618 59.7159 33.4405 57.6512 33.2961C54.5473 33.2961 51.9621 32.3663 50.5123 30.4894C49.556 29.1191 49.0731 27.4741 49.1368 25.8044C49.0824 24.1698 49.582 22.5647 50.5544 21.2495C52.0215 19.4282 54.681 18.2199 58.6404 18.2199C63.1954 18.2199 65.8721 19.614 67.0235 21.9564C67.2707 22.5081 67.4159 23.0999 67.4519 23.7034H62.6333C62.5118 23.3367 62.2859 23.0135 61.9833 22.7736C61.0234 22.1372 59.8771 21.8429 58.7295 21.9379C58.0564 21.8563 57.3735 21.9184 56.7262 22.1204C56.0789 22.3223 55.4818 22.6593 54.9744 23.1091C54.3982 23.8978 54.1277 24.8687 54.213 25.8416C54.1461 26.7698 54.3949 27.6934 54.9187 28.4626C55.4306 28.9397 56.0393 29.3009 56.7032 29.5223C57.3671 29.7436 58.0708 29.8197 58.7667 29.7453C60.1488 29.8577 61.521 29.4314 62.5961 28.5555C62.827 28.2667 62.9862 27.9273 63.0604 27.565H57.8753V24.4289H67.5782V33.0733H63.5816ZM78.8065 33.2961C85.7027 33.2961 88.6036 30.321 88.6036 25.6744C88.6036 20.9523 85.3324 18.1456 78.8065 18.1456C72.3758 18.1456 68.9909 21.1938 68.9909 25.6744C68.9909 30.7308 72.5417 33.2961 78.8065 33.2961Z" fill="#1A1A1A"/>
<path d="M105.844 33.0175V18.4241H109.434V33.0175H105.844Z" fill="#1A1A1A"/>
<path d="M127.872 26.9199C126.962 28.1097 125.396 28.6532 123.188 28.6669C122.723 28.6669 116.551 28.6483 116.551 28.6483V33.0175H113.037V18.4241H123.19C124.003 18.338 124.826 18.4243 125.604 18.6773C126.383 18.9304 127.098 19.3444 127.706 19.8925C128.509 20.9377 128.899 22.2409 128.803 23.5548C128.885 24.7498 128.557 25.937 127.872 26.9199ZM124.991 22.1619C124.62 21.6048 123.819 21.2952 122.463 21.2952H116.532V25.7375H122.425C123.874 25.7375 124.638 25.4404 124.991 24.8634C125.2 24.457 125.291 23.9992 125.251 23.5436C125.282 23.0684 125.193 22.5931 124.991 22.1619Z" fill="#1A1A1A"/>
<path d="M139.157 33.2404C132.539 33.2404 130.513 30.7642 130.513 28.314H134.268C134.268 29.5224 135.922 30.4336 139.325 30.4336C142.707 30.4336 143.6 29.8381 143.6 28.8711C143.6 27.7928 142.931 27.4585 139.789 27.1056C139.17 27.0499 137.485 26.8456 136.852 26.7528C132.395 26.2501 130.679 24.9303 130.679 22.5692C130.679 20.0782 133.19 18.2012 138.636 18.2012C144.548 18.2012 146.816 20.5251 146.816 22.9419H143.102C143.102 21.7149 141.708 21.008 138.417 21.008C135.033 21.008 134.309 21.4723 134.309 22.3835C134.309 23.3319 135.052 23.629 138.642 24.0562C139.461 24.1689 141.282 24.3731 141.783 24.4276C145.577 24.8176 147.287 26.1931 147.287 28.6285C147.281 31.5293 144.678 33.2404 139.157 33.2404Z" fill="#1A1A1A"/>
<path d="M157.86 33.2218C153.009 33.2218 149.848 31.3065 149.848 27.2789V18.4241H153.398V27.3285C153.398 29.1695 154.905 30.3952 158.009 30.3952C160.815 30.3952 162.489 29.2438 162.489 27.3285V18.4241H166.003V27.6095C166.003 31.2705 163.065 33.2218 157.86 33.2218Z" fill="#1A1A1A"/>
<path d="M185.243 33.0175V23.2762L180.688 33.0175H177.231L172.806 23.2762V33.0175H169.464V18.4241H173.993L179.012 29.5409L184.142 18.4241H188.6V33.0175H185.243Z" fill="#1A1A1A"/>
</svg>
