<svg width="248" height="46" viewBox="0 0 248 46" fill="none" xmlns="http://www.w3.org/2000/svg">
<g clip-path="url(#clip0_34_46)">
<path d="M23 45.5C35.4267 45.5 45.5 35.4268 45.5 23V7.25C45.5 5.45979 44.7888 3.7429 43.5229 2.47703C42.2571 1.21116 40.5402 0.5 38.75 0.5L24.125 0.5V10.3708C24.125 12.623 24.2622 14.9563 25.4435 16.8732C26.2891 18.2471 27.4204 19.423 28.7605 20.3211C30.1007 21.2193 31.6183 21.8187 33.2105 22.0786L33.6413 22.1484C33.819 22.2091 33.9732 22.3238 34.0824 22.4765C34.1916 22.6292 34.2503 22.8123 34.2503 23C34.2503 23.1877 34.1916 23.3708 34.0824 23.5235C33.9732 23.6762 33.819 23.7909 33.6413 23.8516L33.2105 23.9214C30.8842 24.3014 28.736 25.4025 27.0692 27.0693C25.4025 28.736 24.3014 30.8842 23.9214 33.2105L23.8516 33.6414C23.7909 33.819 23.6761 33.9732 23.5234 34.0824C23.3707 34.1916 23.1877 34.2503 23 34.2503C22.8123 34.2503 22.6292 34.1916 22.4765 34.0824C22.3238 33.9732 22.2091 33.819 22.1483 33.6414L22.0786 33.2105C21.8186 31.6183 21.2192 30.1007 20.321 28.7606C19.4229 27.4205 18.247 26.2892 16.8732 25.4435C14.9562 24.2623 12.623 24.125 10.3707 24.125H0.526978C1.11535 36.0286 10.9512 45.5 23 45.5Z" fill="#1A1A1A"/>
<path d="M0.5 21.875H10.3708C12.623 21.875 14.9563 21.7377 16.8732 20.5565C18.3718 19.6332 19.6332 18.3718 20.5565 16.8732C21.7377 14.9563 21.875 12.623 21.875 10.3708V0.5H7.25C5.45979 0.5 3.7429 1.21116 2.47703 2.47703C1.21116 3.7429 0.5 5.45979 0.5 7.25L0.5 21.875ZM52.7619 2.75C52.7619 3.34674 52.5248 3.91903 52.1029 4.34099C51.6809 4.76295 51.1086 5 50.5119 5C49.9151 5 49.3428 4.76295 48.9209 4.34099C48.4989 3.91903 48.2619 3.34674 48.2619 2.75C48.2619 2.15326 48.4989 1.58097 48.9209 1.15901C49.3428 0.737053 49.9151 0.5 50.5119 0.5C51.1086 0.5 51.6809 0.737053 52.1029 1.15901C52.5248 1.58097 52.7619 2.15326 52.7619 2.75ZM238.675 14.117C244.965 14.117 248 18.5101 248 23.5985V33.1554H241.418V24.7325C241.418 22.4263 240.576 20.5228 238.163 20.5228C235.75 20.5228 234.945 22.4263 234.945 24.7325V33.1542H228.363V24.7325C228.363 22.4263 227.559 20.5228 225.145 20.5228C222.731 20.5228 221.89 22.4263 221.89 24.7325V33.1542H215.309V23.5974C215.309 18.509 218.343 14.1159 224.633 14.1159C228.071 14.1159 230.557 15.4704 231.691 17.7035C232.897 15.4704 235.531 14.1147 238.675 14.1147V14.117ZM203.48 27.2975C205.601 27.2975 206.516 25.3569 206.516 23.0495V14.8482H213.097V23.855C213.097 29.237 209.952 33.7044 203.48 33.7044C197.007 33.7044 193.863 29.2381 193.863 23.855V14.8482H200.445V23.0495C200.445 25.3558 201.359 27.2975 203.48 27.2975ZM184.184 33.7404C180.052 33.7404 177.383 32.3127 175.81 29.5306L180.564 26.8576C181.222 28.0288 182.209 28.6149 183.855 28.6149C185.208 28.6149 185.829 28.139 185.829 27.5529C185.829 25.3198 176.176 27.59 176.176 20.4879C176.176 17.0454 179.101 14.2633 184.074 14.2633C188.426 14.2633 190.803 16.3861 191.864 18.437L187.109 21.146C186.708 20.048 185.464 19.3888 184.22 19.3888C183.27 19.3888 182.758 19.7915 182.758 20.3405C182.758 22.6108 192.411 20.5239 192.411 27.4066C192.411 31.2507 188.645 33.7404 184.184 33.7404ZM161.187 41.576H154.605V23.9653C154.605 18.3627 158.81 14.2992 164.661 14.2992C170.366 14.2992 174.717 18.6564 174.717 23.9653C174.717 29.8231 170.841 33.7044 165.027 33.7044C163.673 33.7044 162.321 33.3016 161.187 32.6784V41.576ZM164.661 27.5169C166.746 27.5169 168.135 25.9059 168.135 24.0012C168.135 22.0617 166.746 20.4868 164.661 20.4868C162.577 20.4868 161.187 22.0618 161.187 24.0024C161.187 25.9059 162.577 27.5169 164.661 27.5169ZM148.011 12.9087C145.853 12.9087 144.062 11.1144 144.062 8.95438C144.062 6.79437 145.853 5 148.011 5C150.169 5 151.961 6.79437 151.961 8.95438C151.961 11.1144 150.169 12.9087 148.011 12.9087ZM144.721 14.8482H151.303V33.1554H144.721V14.8482ZM132.091 33.7044C126.386 33.7044 122.035 29.3112 122.035 23.9653C122.035 18.6564 126.386 14.2633 132.091 14.2633C137.796 14.2633 142.148 18.6564 142.148 23.9653C142.148 29.3112 137.796 33.7044 132.091 33.7044ZM132.091 27.5169C134.176 27.5169 135.565 25.9059 135.565 24.0012C135.565 22.0617 134.176 20.4507 132.091 20.4507C130.007 20.4507 128.617 22.0617 128.617 24.0012C128.617 25.9059 130.007 27.5169 132.091 27.5169ZM109.606 42.125C105.072 42.125 101.78 40.1113 100.098 36.5225L105.547 33.5941C106.132 34.8395 107.229 36.1209 109.496 36.1209C111.874 36.1209 113.445 34.619 113.629 31.9831C112.751 32.7526 111.361 33.3376 109.277 33.3376C104.194 33.3376 100.097 29.4204 100.097 23.9281C100.097 18.6204 104.45 14.2992 110.155 14.2992C116.006 14.2992 120.211 18.3639 120.211 23.9653V31.2148C120.211 37.805 115.639 42.125 109.606 42.125ZM110.045 27.1513C112.019 27.1513 113.519 25.7956 113.519 23.7819C113.519 21.8053 112.02 20.4868 110.045 20.4868C108.106 20.4868 106.571 21.8052 106.571 23.783C106.571 25.7967 108.106 27.1501 110.045 27.1501V27.1513ZM88.9329 33.7044C83.228 33.7044 78.8754 29.3112 78.8754 23.9653C78.8754 18.6564 83.228 14.2633 88.9329 14.2633C94.6366 14.2633 98.9893 18.6564 98.9893 23.9653C98.9893 29.3112 94.6378 33.7044 88.9329 33.7044ZM88.9329 27.5169C91.0175 27.5169 92.4069 25.9059 92.4069 24.0012C92.4069 22.0617 91.0175 20.4507 88.9329 20.4507C86.8483 20.4507 85.4589 22.0617 85.4589 24.0012C85.4589 25.9059 86.8483 27.5169 88.9329 27.5169ZM66.8896 8.4425V26.9307H77.7875V33.1554H65.975C61.8069 33.1554 60.125 30.9583 60.125 27.4797V8.4425H66.8896Z" fill="#1A1A1A"/>
</g>
<defs>
<clipPath id="clip0_34_46">
<rect width="247.5" height="45" fill="white" transform="translate(0.5 0.5)"/>
</clipPath>
</defs>
</svg>
