<svg width="227" height="50" viewBox="0 0 227 50" fill="none" xmlns="http://www.w3.org/2000/svg">
<g clip-path="url(#clip0_34_25)">
<path fill-rule="evenodd" clip-rule="evenodd" d="M71.9966 3.32766C71.9966 1.63328 73.3851 0.259705 75.0982 0.259705H80.5013C81.7205 0.259705 82.9021 0.67763 83.8448 1.44234L85.4884 2.77561L85.5295 2.81269C85.5674 2.80004 85.6054 2.78767 85.6434 2.77561C88.6088 1.83611 92.2066 1.65744 95.8787 1.65744C99.5507 1.65744 103.149 1.83611 106.114 2.77561C106.152 2.78767 106.19 2.80004 106.228 2.81269L106.269 2.77561L107.913 1.44234C108.855 0.67763 110.037 0.259705 111.256 0.259705H116.659C118.372 0.259705 119.761 1.63328 119.761 3.32766V5.22422C119.761 6.6916 119.136 8.0911 118.039 9.07939L116.713 10.2745C116.066 10.8579 115.289 11.2825 114.445 11.514L114.131 11.6001C115.36 14.5 116.039 17.5998 116.039 20.1073C116.039 30.1944 109.729 34.5509 104.17 38.3894C99.7916 41.4123 95.8787 44.1139 95.8787 49.0402C95.8787 44.1139 91.9657 41.4123 87.5876 38.3894C82.028 34.5509 75.7184 30.1944 75.7184 20.1073C75.7184 17.5998 76.3972 14.5 77.6258 11.6001L77.3122 11.514C76.4683 11.2825 75.6913 10.8579 75.044 10.2745L73.718 9.07939C72.6215 8.0911 71.9966 6.6916 71.9966 5.22422V3.32766ZM99.9107 28.3539C99.9107 28.8359 99.6983 29.2979 99.3202 29.6388C98.9422 29.9795 98.4294 30.171 97.8946 30.171C97.433 30.171 96.9877 30.0282 96.6313 29.7699C97.2379 31.376 98.7902 32.8978 101.151 30.4505C103.236 28.1765 101.059 23.3802 98.9377 20.5341C98.2307 19.5855 97.0701 19.1289 95.8787 19.1289C94.6872 19.1289 93.5266 19.5855 92.8196 20.5341C90.6987 23.3802 88.5216 28.1765 90.606 30.4505C92.9671 32.8978 94.5194 31.376 95.126 29.7699C94.7696 30.0282 94.3243 30.171 93.8627 30.171C93.3279 30.171 92.8151 29.9795 92.4371 29.6388C92.059 29.2979 91.8466 28.8359 91.8466 28.3539H99.9107ZM88.1583 14.1562H82.542L86.9682 17.6619C87.9422 18.4333 89.3659 18.1867 89.9685 17.1422C90.7295 15.8234 89.7188 14.1562 88.1583 14.1562ZM103.599 14.1562H109.215L104.789 17.6619C103.815 18.4333 102.391 18.1867 101.789 17.1422C101.028 15.8234 102.039 14.1562 103.599 14.1562Z" fill="#1A1A1A"/>
<path d="M126.451 34.8125H131.427V16.0442H126.451V34.8125ZM126.451 13.1174H131.427V8.65399H126.451V13.1174Z" fill="#1A1A1A"/>
<path d="M134.633 40.9589H139.609V32.6906H139.682C140.743 34.3004 142.462 35.3614 145.096 35.3614C149.926 35.3614 153.218 31.5199 153.218 25.4467C153.218 19.5931 150.035 15.5321 145.06 15.5321C142.499 15.5321 140.743 16.7394 139.535 18.3858H139.426V16.0443H134.633V40.9589ZM144.035 31.2272C141.072 31.2272 139.499 28.9955 139.499 25.5931C139.499 22.2272 140.743 19.5565 143.852 19.5565C146.926 19.5565 148.17 22.0443 148.17 25.5931C148.17 29.1419 146.56 31.2272 144.035 31.2272Z" fill="#1A1A1A"/>
<path d="M163.144 35.3614C167.827 35.3614 171.046 33.0931 171.046 29.3248C171.046 24.9345 167.571 24.0565 164.424 23.398C161.754 22.8492 159.266 22.7028 159.266 21.0931C159.266 19.7394 160.546 19.0077 162.485 19.0077C164.607 19.0077 165.888 19.7394 166.107 21.7516H170.607C170.241 17.9833 167.498 15.5321 162.559 15.5321C158.278 15.5321 154.912 17.4711 154.912 21.5321C154.912 25.6297 158.205 26.5443 161.571 27.2028C164.132 27.715 166.51 27.898 166.51 29.6906C166.51 31.0077 165.266 31.8492 163.071 31.8492C160.839 31.8492 159.302 30.898 158.973 28.7394H154.363C154.656 32.7272 157.693 35.3614 163.144 35.3614Z" fill="#1A1A1A"/>
<path d="M189.938 34.8125V16.0443H184.962V26.8735C184.962 29.3613 183.535 31.1174 181.194 31.1174C179.072 31.1174 178.084 29.9101 178.084 27.715V16.0443H173.145V28.5564C173.145 32.654 175.487 35.3247 179.657 35.3247C182.291 35.3247 183.755 34.3369 185.035 32.6174H185.145V34.8125H189.938Z" fill="#1A1A1A"/>
<path d="M193.156 34.8126H198.132V23.9102C198.132 21.4223 199.485 19.8126 201.498 19.8126C203.327 19.8126 204.388 20.9102 204.388 23.0321V34.8126H209.363V23.9102C209.363 21.4223 210.644 19.8126 212.729 19.8126C214.559 19.8126 215.62 20.9102 215.62 23.0321V34.8126H220.595V22.1906C220.595 18.0931 218.363 15.5321 214.412 15.5321C212.034 15.5321 210.059 16.776 208.778 18.8248H208.705C207.79 16.8492 205.888 15.5321 203.51 15.5321C200.912 15.5321 199.083 16.8492 198.059 18.5687H197.949V16.0443H193.156V34.8126Z" fill="#1A1A1A"/>
<path d="M0.834259 34.8125H5.80987V8.65399H0.834259V34.8125Z" fill="#1A1A1A"/>
<path d="M17.976 35.3614C23.793 35.3614 27.7808 31.0443 27.7808 25.4467C27.7808 19.8492 23.793 15.5321 17.976 15.5321C12.1588 15.5321 8.17102 19.8492 8.17102 25.4467C8.17102 31.0443 12.1588 35.3614 17.976 35.3614ZM17.976 31.5565C14.9028 31.5565 13.2199 29.1053 13.2199 25.4467C13.2199 21.7882 14.9028 19.3004 17.976 19.3004C21.0125 19.3004 22.7321 21.7882 22.7321 25.4467C22.7321 29.1053 21.0125 31.5565 17.976 31.5565Z" fill="#1A1A1A"/>
<path d="M38.3619 41.215C41.1424 41.215 43.5571 40.5565 45.1302 39.0931C46.5205 37.8126 47.3619 36.0199 47.3619 33.3858V16.0443H42.5693V18.0199H42.4961C41.3619 16.4467 39.6424 15.5321 37.301 15.5321C32.5449 15.5321 29.179 19.1175 29.179 24.715C29.179 30.3858 33.2766 33.6784 37.4473 33.6784C39.8254 33.6784 41.2522 32.7272 42.3497 31.4833H42.4595V33.5321C42.4595 36.0931 41.1058 37.4467 38.2888 37.4467C35.9839 37.4467 34.9229 36.5321 34.5205 35.3614H29.5815C30.0937 39.0199 33.24 41.215 38.3619 41.215ZM38.2888 29.6906C35.7278 29.6906 34.0449 27.8248 34.0449 24.6419C34.0449 21.4955 35.7278 19.5199 38.2522 19.5199C41.2522 19.5199 42.7156 21.8614 42.7156 24.6053C42.7156 27.3858 41.4351 29.6906 38.2888 29.6906Z" fill="#1A1A1A"/>
<path d="M59.456 35.3614C65.273 35.3614 69.2608 31.0443 69.2608 25.4467C69.2608 19.8492 65.273 15.5321 59.456 15.5321C53.6389 15.5321 49.6511 19.8492 49.6511 25.4467C49.6511 31.0443 53.6389 35.3614 59.456 35.3614ZM59.456 31.5565C56.3828 31.5565 54.6999 29.1053 54.6999 25.4467C54.6999 21.7882 56.3828 19.3004 59.456 19.3004C62.4926 19.3004 64.2121 21.7882 64.2121 25.4467C64.2121 29.1053 62.4926 31.5565 59.456 31.5565Z" fill="#1A1A1A"/>
<path d="M220.371 11.9467C220.371 11.1048 221.052 10.4223 221.895 10.4223H224.944C225.785 10.4223 226.468 11.1048 226.468 11.9467C226.468 12.7885 225.785 13.4711 224.944 13.4711H221.895C221.052 13.4711 220.371 12.7885 220.371 11.9467Z" fill="#1A1A1A"/>
</g>
<defs>
<clipPath id="clip0_34_25">
<rect width="226.829" height="50" fill="white"/>
</clipPath>
</defs>
</svg>
