<svg width="208" height="54" viewBox="0 0 208 54" fill="none" xmlns="http://www.w3.org/2000/svg">
<path d="M17.508 48.982L12.6293 40.5319L19.789 28.165L24.3387 36.0459L51.1965 36.0315L43.5754 49.0987L17.508 48.982Z" fill="#404040"/>
<path d="M55.9924 27.6408L51.1138 36.0907L36.8239 36.0739L41.374 28.1932L27.9327 4.94092L43.0597 5.00729L55.9924 27.6408Z" fill="#404040"/>
<path d="M18.2599 4.89594H28.0172L35.1475 17.28L26.0474 17.2796L12.6312 40.5464L5.12506 27.4128L18.2599 4.89594Z" fill="#404040"/>
<path fill-rule="evenodd" clip-rule="evenodd" d="M29.2068 2.93939L29.1777 2.88892H17.1072L2.80762 27.4026L12.6235 44.5776L12.6356 44.5567L16.3464 50.9841L44.7255 51.111L54.6917 34.0225H54.6253L58.3069 27.6459L44.2273 3.00529L29.2068 2.93939ZM38.544 19.287H38.6193L31.5238 6.96376L41.892 7.00922L53.6778 27.6355L49.9888 34.0252L40.3213 34.0303L43.692 28.1925L38.544 19.287ZM26.7487 6.90301L31.5868 15.2727L24.8881 15.2725L13.4198 35.1609L12.6376 36.5122L7.44286 27.423L19.4128 6.90301H26.7487ZM22.0971 28.1484L27.207 19.2867L33.9075 19.287L39.0561 28.1937L35.6847 34.0329L25.4974 34.0384L22.0971 28.1484ZM14.9517 40.54L16.8957 37.1688L19.7866 32.1751L23.1804 38.0538L33.3661 38.0482L33.3496 38.0767L47.6704 38.0937L42.4257 47.0866L18.6699 46.9803L14.9517 40.54Z" fill="black"/>
<path d="M131.415 17.5782C132.79 17.5782 133.906 16.4613 133.906 15.0582C133.906 13.655 132.79 12.5668 131.415 12.5668C130.012 12.5668 128.895 13.655 128.895 15.0582C128.895 16.4613 130.012 17.5782 131.415 17.5782ZM129.181 34.13H133.62V19.8119H129.181V34.13Z" fill="#404040"/>
<path d="M136.204 41.0028H140.557V32.6982C141.387 33.7864 143.277 34.5309 145.253 34.5309C149.52 34.5309 152.097 31.2664 151.983 26.7418C151.868 22.1313 149.205 19.3536 145.224 19.3536C143.191 19.3536 141.273 20.2413 140.471 21.5586L140.242 19.8118H136.204V41.0028ZM140.643 26.9709C140.643 24.8232 142.074 23.3914 144.136 23.3914C146.227 23.3914 147.544 24.8518 147.544 26.9709C147.544 29.0899 146.227 30.5505 144.136 30.5505C142.074 30.5505 140.643 29.1186 140.643 26.9709Z" fill="#404040"/>
<path d="M152.453 29.6055C152.567 32.4978 154.859 34.5022 158.466 34.5022C161.931 34.5022 164.337 32.6695 164.337 29.7199C164.337 27.6009 163.077 26.1978 160.728 25.6249L158.18 24.9949C157.263 24.7659 156.69 24.5368 156.69 23.7922C156.69 23.0478 157.292 22.5609 158.18 22.5609C159.182 22.5609 159.84 23.2195 159.812 24.1932H163.793C163.679 21.2149 161.415 19.3536 158.265 19.3536C155.087 19.3536 152.711 21.2436 152.711 24.1072C152.711 26.0259 153.77 27.6009 156.605 28.3455L159.125 29.0041C159.869 29.2045 160.184 29.5482 160.184 30.0349C160.184 30.7509 159.525 31.2091 158.409 31.2091C157.121 31.2091 156.434 30.6078 156.434 29.6055H152.453Z" fill="#404040"/>
<path d="M171.087 34.5022C172.833 34.5022 174.581 33.7005 175.469 32.5264L175.755 34.1299H179.907V19.8118H175.497V27.2572C175.497 29.4049 174.867 30.5791 172.833 30.5791C171.258 30.5791 170.228 29.8632 170.228 27.1999V19.8118H165.818V28.8036C165.818 32.2114 167.708 34.5022 171.087 34.5022Z" fill="#404040"/>
<path d="M186.9 34.13V26.3123C186.9 23.9069 188.189 23.2196 189.449 23.2196C190.853 23.2196 191.769 24.0786 191.769 25.8542V34.13H196.121V26.3123C196.121 23.8782 197.381 23.1909 198.641 23.1909C200.045 23.1909 200.99 24.05 200.99 25.8542V34.13H205.284V24.7659C205.284 21.5013 203.567 19.325 199.872 19.325C197.811 19.325 196.121 20.3273 195.377 21.8736C194.517 20.3273 193.029 19.325 190.652 19.325C189.077 19.325 187.616 20.0409 186.758 21.1863L186.585 19.8119H182.462V34.13H186.9Z" fill="#404040"/>
<path d="M70.9324 12.9412H66.2361V34.1322H79.237V29.9799H70.9324V12.9412Z" fill="black"/>
<path d="M79.6855 26.9445C79.6855 31.4689 82.7211 34.4758 87.3029 34.4758C91.8561 34.4758 94.8915 31.4689 94.8915 26.9445C94.8915 22.4199 91.8561 19.3843 87.3029 19.3843C82.7211 19.3843 79.6855 22.4199 79.6855 26.9445ZM84.1242 26.9158C84.1242 24.768 85.3842 23.3362 87.3029 23.3362C89.1929 23.3362 90.4528 24.768 90.4528 26.9158C90.4528 29.0922 89.1929 30.5239 87.3029 30.5239C85.3842 30.5239 84.1242 29.0922 84.1242 26.9158Z" fill="black"/>
<path d="M95.6009 26.7153C95.6009 31.0395 98.4074 33.9603 102.388 33.9603C104.306 33.9603 105.967 33.2732 106.798 32.1563V34.1322C106.798 36.1082 105.566 37.4253 103.39 37.4253C101.443 37.4253 100.097 36.509 100.011 34.8767H95.5437C95.9445 38.7999 98.9801 41.4345 103.132 41.4345C108.029 41.4345 111.122 38.2559 111.122 33.2159V19.814H107.141L106.912 21.2745C106.11 20.1003 104.421 19.3272 102.474 19.3272C98.4645 19.3272 95.6009 22.334 95.6009 26.7153ZM100.068 26.6009C100.068 24.539 101.443 23.1645 103.19 23.1645C105.223 23.1645 106.712 24.5103 106.712 26.6009C106.712 28.6913 105.251 30.123 103.218 30.123C101.471 30.123 100.068 28.6913 100.068 26.6009Z" fill="black"/>
<path d="M112.407 26.9445C112.407 31.4689 115.443 34.4758 120.024 34.4758C124.578 34.4758 127.613 31.4689 127.613 26.9445C127.613 22.4199 124.578 19.3843 120.024 19.3843C115.443 19.3843 112.407 22.4199 112.407 26.9445ZM116.846 26.9158C116.846 24.768 118.106 23.3362 120.024 23.3362C121.914 23.3362 123.174 24.768 123.174 26.9158C123.174 29.0922 121.914 30.5239 120.024 30.5239C118.106 30.5239 116.846 29.0922 116.846 26.9158Z" fill="black"/>
</svg>
