<svg width="270" height="60" viewBox="0 0 270 60" fill="none" xmlns="http://www.w3.org/2000/svg">
<path d="M9.37934 50.6206C4.60864 45.85 1.63971 39.5727 0.978411 32.8584C0.317112 26.1441 2.00436 19.4082 5.75268 13.7984C9.50099 8.1887 15.0785 4.05218 21.5347 2.09369C27.991 0.135207 34.9266 0.475933 41.1598 3.05782C47.393 5.6397 52.5382 10.303 55.7186 16.2531C58.899 22.2033 59.9179 29.0721 58.6017 35.6892C57.2854 42.3064 53.7155 48.2624 48.5002 52.5425C43.2848 56.8227 36.7468 59.162 30 59.162" stroke="#79962C" stroke-width="1.67598"/>
<path d="M30.3918 27.9283C30.9114 28.0338 31.3741 28.3266 31.692 28.7511C32.0099 29.1755 32.1607 29.7019 32.1157 30.2302C32.0708 30.7586 31.8333 31.252 31.4484 31.6166C31.0634 31.9813 30.5579 32.1918 30.0279 32.2081C29.4979 32.2244 28.9804 32.0453 28.5738 31.705C28.1672 31.3646 27.8999 30.8867 27.8226 30.3622C27.7453 29.8376 27.8635 29.3029 28.1547 28.8598C28.4459 28.4166 28.8898 28.096 29.4019 27.9587" stroke="#79962C" stroke-width="1.67598"/>
<path d="M25.3334 27.7738C25.8603 26.702 26.7426 25.8462 27.8298 25.352C28.917 24.8578 30.142 24.7559 31.2959 25.0637C32.4498 25.3714 33.4614 26.0697 34.1581 27.0396C34.8549 28.0095 35.1938 29.1911 35.1171 30.3828C35.0405 31.5746 34.5529 32.703 33.7376 33.5756C32.9222 34.4482 31.8295 35.0111 30.6457 35.1684C29.4618 35.3257 28.26 35.0676 27.2451 34.4382C26.2302 33.8088 25.4649 32.8469 25.0797 31.7165" stroke="#79962C" stroke-width="1.67598"/>
<path d="M38.1321 30.0556C38.1321 34.5634 34.4778 38.2176 29.9701 38.2176C25.4623 38.2176 21.8081 34.5634 21.8081 30.0556C21.8081 25.5479 25.4623 21.8936 29.9701 21.8936C34.4778 21.8936 38.1321 25.5479 38.1321 30.0556Z" stroke="#79962C" stroke-width="1.67598"/>
<path d="M35.9088 20.6062C38.1873 22.0365 39.8726 24.2416 40.6545 26.8157C41.4364 29.3898 41.2623 32.1597 40.1643 34.6157C39.0663 37.0716 37.1182 39.0484 34.6786 40.1822C32.2389 41.316 29.4719 41.5306 26.8866 40.7864C24.3014 40.0422 22.0719 38.3893 20.6084 36.132C19.1449 33.8746 18.546 31.1646 18.9218 28.5008C19.2975 25.8369 20.6228 23.3984 22.6536 21.634C24.6844 19.8695 27.2841 18.8979 29.9743 18.8979" stroke="#79962C" stroke-width="1.67598"/>
<path d="M18.9156 21.2227C21.0636 18.535 24.1166 16.7211 27.5043 16.12C30.892 15.5189 34.3827 16.1716 37.3243 17.9562C40.2659 19.7408 42.4572 22.5352 43.4889 25.8175C44.5206 29.0998 44.3222 32.6454 42.9306 35.7921C41.5391 38.9387 39.0496 41.4711 35.9272 42.9163C32.8048 44.3615 29.2631 44.6206 25.9636 43.6452C22.6642 42.6697 19.8327 40.5265 17.998 37.6159C16.1634 34.7052 15.4511 31.2262 15.9942 27.8287" stroke="#79962C" stroke-width="1.67598"/>
<path d="M13.7966 35.7728C12.4769 32.028 12.4965 27.9415 13.8519 24.2095C15.2074 20.4775 17.815 17.331 21.2304 15.3061C24.6457 13.2811 28.6576 12.5031 32.5823 13.1044C36.507 13.7058 40.1018 15.6494 42.7541 18.6041C45.4064 21.5588 46.9522 25.3418 47.1281 29.3084C47.3039 33.275 46.099 37.1799 43.7185 40.3577C41.338 43.5355 37.9293 45.7896 34.0732 46.7359C30.2171 47.6822 26.1522 47.2622 22.5711 45.5475" stroke="#79962C" stroke-width="1.67598"/>
<path d="M49.5313 25.1196C50.6676 29.6031 50.2278 34.341 48.2856 38.5388C46.3435 42.7366 43.0171 46.1389 38.8642 48.1754C34.7113 50.2118 29.9846 50.7585 25.4765 49.7237C20.9684 48.6889 16.9532 46.1356 14.1042 42.492C11.2551 38.8483 9.74549 34.3359 9.82841 29.7113C9.91133 25.0868 11.5818 20.6313 14.5596 17.0921C17.5374 13.553 21.6416 11.1452 26.1839 10.2727C30.7261 9.40021 35.4302 10.116 39.5074 12.3" stroke="#79962C" stroke-width="1.67598"/>
<path d="M38.5554 51.5977C33.1904 53.7326 27.2214 53.7867 21.8187 51.7492C16.4159 49.7118 11.969 45.7298 9.34965 40.5839C6.73034 35.438 6.12755 29.4993 7.65945 23.9321C9.19136 18.3648 12.7475 13.5705 17.6307 10.489C22.5139 7.40755 28.3719 6.26113 34.0565 7.27452C39.741 8.28791 44.8421 11.388 48.3596 15.9671C51.8771 20.5462 53.5575 26.274 53.0712 32.0277C52.5849 37.7813 49.9671 43.1459 45.7309 47.0696" stroke="#79962C" stroke-width="1.67598"/>
<path d="M48.6137 11.7014C52.7643 15.9058 55.3697 21.3912 56.0057 27.2648C56.6417 33.1385 55.271 39.0545 52.1166 44.0499C48.9621 49.0452 44.2098 52.8259 38.6331 54.7764C33.0564 56.7269 26.9837 56.7324 21.4034 54.7921C15.8232 52.8518 11.064 49.0798 7.90044 44.0902C4.73691 39.1006 3.35536 33.1871 3.98066 27.3123C4.60596 21.4375 7.2013 15.9474 11.3442 11.7354C15.4871 7.52349 20.9337 4.83781 26.7973 4.11554" stroke="#79962C" stroke-width="1.67598"/>
<mask id="mask0_18_601" style="mask-type:alpha" maskUnits="userSpaceOnUse" x="-3" y="3" width="65" height="57">
<path d="M21.9718 60L-2.01115 3.68715H15.1539L35.3669 52.438H25.2604L45.9547 3.68715H61.676L37.6128 60H21.9718Z" fill="#C9FA49"/>
</mask>
<g mask="url(#mask0_18_601)">
<path d="M9.37935 50.6206C4.60866 45.85 1.63973 39.5727 0.978426 32.8584C0.317128 26.1441 2.00438 19.4082 5.75269 13.7984C9.50101 8.1887 15.0785 4.05218 21.5347 2.09369C27.991 0.135207 34.9266 0.475933 41.1598 3.05782C47.3931 5.6397 52.5382 10.303 55.7186 16.2531C58.899 22.2033 59.9179 29.0721 58.6017 35.6892C57.2855 42.3064 53.7155 48.2624 48.5002 52.5425C43.2849 56.8227 36.7468 59.162 30 59.162" stroke="#C9FA49" stroke-width="1.67598"/>
<path d="M30.3918 27.9283C30.9114 28.0338 31.3741 28.3266 31.692 28.7511C32.0099 29.1755 32.1607 29.7019 32.1157 30.2302C32.0708 30.7586 31.8333 31.252 31.4484 31.6166C31.0634 31.9813 30.5579 32.1918 30.0279 32.2081C29.4979 32.2244 28.9804 32.0453 28.5738 31.705C28.1672 31.3646 27.8999 30.8867 27.8226 30.3622C27.7453 29.8376 27.8635 29.3029 28.1547 28.8598C28.4459 28.4166 28.8898 28.096 29.4019 27.9587" stroke="#C9FA49" stroke-width="1.67598"/>
<path d="M25.3334 27.7738C25.8603 26.702 26.7426 25.8462 27.8298 25.352C28.917 24.8578 30.142 24.7559 31.2959 25.0637C32.4498 25.3714 33.4614 26.0697 34.1581 27.0396C34.8549 28.0095 35.1938 29.1911 35.1171 30.3828C35.0405 31.5746 34.5529 32.703 33.7376 33.5756C32.9222 34.4482 31.8295 35.0111 30.6457 35.1684C29.4618 35.3257 28.26 35.0676 27.2451 34.4382C26.2302 33.8088 25.4649 32.8469 25.0797 31.7165" stroke="#C9FA49" stroke-width="1.67598"/>
<path d="M38.1321 30.0556C38.1321 34.5634 34.4778 38.2176 29.9701 38.2176C25.4623 38.2176 21.8081 34.5634 21.8081 30.0556C21.8081 25.5479 25.4623 21.8936 29.9701 21.8936C34.4778 21.8936 38.1321 25.5479 38.1321 30.0556Z" stroke="#C9FA49" stroke-width="1.67598"/>
<path d="M35.9088 20.6062C38.1873 22.0365 39.8726 24.2416 40.6545 26.8157C41.4364 29.3898 41.2623 32.1597 40.1643 34.6157C39.0663 37.0716 37.1182 39.0484 34.6786 40.1822C32.2389 41.316 29.4719 41.5306 26.8866 40.7864C24.3014 40.0422 22.0719 38.3893 20.6084 36.132C19.1449 33.8746 18.546 31.1646 18.9218 28.5008C19.2975 25.8369 20.6228 23.3984 22.6536 21.634C24.6844 19.8695 27.2841 18.8979 29.9743 18.8979" stroke="#C9FA49" stroke-width="1.67598"/>
<path d="M18.9156 21.2227C21.0636 18.535 24.1166 16.7211 27.5043 16.12C30.892 15.5189 34.3827 16.1716 37.3243 17.9562C40.2659 19.7408 42.4572 22.5352 43.4889 25.8175C44.5206 29.0998 44.3222 32.6454 42.9306 35.7921C41.5391 38.9387 39.0496 41.4711 35.9272 42.9163C32.8048 44.3615 29.2631 44.6206 25.9636 43.6452C22.6642 42.6697 19.8327 40.5265 17.998 37.6159C16.1634 34.7052 15.4511 31.2262 15.9942 27.8287" stroke="#C9FA49" stroke-width="1.67598"/>
<path d="M13.7966 35.7728C12.4769 32.028 12.4965 27.9415 13.8519 24.2095C15.2074 20.4775 17.815 17.331 21.2304 15.3061C24.6457 13.2811 28.6576 12.5031 32.5823 13.1044C36.507 13.7058 40.1018 15.6494 42.7541 18.6041C45.4064 21.5588 46.9522 25.3418 47.1281 29.3084C47.3039 33.275 46.099 37.1799 43.7185 40.3577C41.338 43.5355 37.9293 45.7896 34.0732 46.7359C30.2171 47.6822 26.1522 47.2622 22.5711 45.5475" stroke="#C9FA49" stroke-width="1.67598"/>
<path d="M49.5313 25.1196C50.6676 29.6031 50.2278 34.341 48.2856 38.5388C46.3435 42.7366 43.0171 46.1389 38.8642 48.1754C34.7113 50.2118 29.9846 50.7585 25.4765 49.7237C20.9684 48.6889 16.9532 46.1356 14.1042 42.492C11.2551 38.8483 9.74549 34.3359 9.82841 29.7113C9.91133 25.0868 11.5818 20.6313 14.5596 17.0921C17.5374 13.553 21.6416 11.1452 26.1839 10.2727C30.7261 9.40021 35.4302 10.116 39.5074 12.3" stroke="#C9FA49" stroke-width="1.67598"/>
<path d="M38.5554 51.5977C33.1904 53.7326 27.2214 53.7867 21.8187 51.7492C16.4159 49.7118 11.969 45.7298 9.34965 40.5839C6.73034 35.438 6.12755 29.4993 7.65945 23.9321C9.19136 18.3648 12.7475 13.5705 17.6307 10.489C22.5139 7.40755 28.3719 6.26113 34.0565 7.27452C39.741 8.28791 44.8421 11.388 48.3596 15.9671C51.8771 20.5462 53.5575 26.274 53.0712 32.0277C52.5849 37.7813 49.9671 43.1459 45.7309 47.0696" stroke="#C9FA49" stroke-width="1.67598"/>
<path d="M48.6137 11.7014C52.7643 15.9058 55.3697 21.3912 56.0057 27.2648C56.6417 33.1385 55.271 39.0545 52.1166 44.0499C48.9621 49.0452 44.2098 52.8259 38.6331 54.7764C33.0564 56.7269 26.9837 56.7324 21.4034 54.7921C15.8232 52.8518 11.064 49.0798 7.90044 44.0902C4.73691 39.1006 3.35536 33.1871 3.98066 27.3123C4.60596 21.4375 7.2013 15.9474 11.3442 11.7354C15.4871 7.52349 20.9337 4.83781 26.7973 4.11554" stroke="#C9FA49" stroke-width="1.67598"/>
</g>
<g clip-path="url(#clip0_18_601)">
<path d="M81.5778 39.6769L73.4078 20.3387H79.2553L86.141 37.08H82.6981L89.7479 20.3387H95.1035L86.9061 39.6769H81.5778Z" fill="#79962C"/>
<path d="M103.929 27.8253H112.809V31.9139H103.929V27.8253ZM104.311 35.4501H114.312V39.6769H98.9556V20.3387H113.957V24.5654H104.311V35.4501Z" fill="#79962C"/>
<path d="M120.047 39.6769V20.3387H128.79C130.539 20.3387 132.042 20.6241 133.299 21.1951C134.574 21.766 135.558 22.5948 136.25 23.6814C136.942 24.7496 137.288 26.0204 137.288 27.4938C137.288 28.9488 136.942 30.2103 136.25 31.2786C135.558 32.3283 134.574 33.1387 133.299 33.7096C132.042 34.2622 130.539 34.5384 128.79 34.5384H123.052L125.457 32.2455V39.6769H120.047ZM131.878 39.6769L127.124 32.6322H132.889L137.671 39.6769H131.878ZM125.457 32.8256L123.052 30.3116H128.463C129.592 30.3116 130.43 30.063 130.976 29.5657C131.541 29.0685 131.823 28.3778 131.823 27.4938C131.823 26.5913 131.541 25.8915 130.976 25.3942C130.43 24.8969 129.592 24.6483 128.463 24.6483H123.052L125.457 22.1343V32.8256Z" fill="#79962C"/>
<path d="M143.006 39.6769V20.3387H147.459L158.007 33.2124H155.903V20.3387H161.204V39.6769H156.75L146.203 26.8031H148.307V39.6769H143.006Z" fill="#79962C"/>
<path d="M177.289 40.0636C175.777 40.0636 174.374 39.8242 173.081 39.3453C171.805 38.8481 170.694 38.1482 169.747 37.2458C168.818 36.3433 168.089 35.2843 167.561 34.0688C167.033 32.8348 166.769 31.4811 166.769 30.0078C166.769 28.5344 167.033 27.1899 167.561 25.9744C168.089 24.7404 168.818 23.6722 169.747 22.7697C170.694 21.8673 171.805 21.1766 173.081 20.6978C174.374 20.2005 175.777 19.9519 177.289 19.9519C179.056 19.9519 180.631 20.265 182.016 20.8912C183.418 21.5174 184.584 22.4198 185.513 23.5985L182.07 26.7479C181.451 26.0112 180.768 25.4495 180.021 25.0627C179.292 24.6759 178.473 24.4826 177.562 24.4826C176.779 24.4826 176.059 24.6115 175.403 24.8693C174.747 25.1272 174.183 25.5047 173.709 26.002C173.254 26.4808 172.889 27.061 172.616 27.7424C172.361 28.4239 172.234 29.179 172.234 30.0078C172.234 30.8365 172.361 31.5916 172.616 32.2731C172.889 32.9545 173.254 33.5439 173.709 34.0412C174.183 34.52 174.747 34.8883 175.403 35.1462C176.059 35.404 176.779 35.533 177.562 35.533C178.473 35.533 179.292 35.3396 180.021 34.9528C180.768 34.566 181.451 34.0043 182.07 33.2676L185.513 36.417C184.584 37.5773 183.418 38.4797 182.016 39.1243C180.631 39.7505 179.056 40.0636 177.289 40.0636Z" fill="#79962C"/>
<path d="M203.446 20.3387H208.856V39.6769H203.446V20.3387ZM196.068 39.6769H190.658V20.3387H196.068V39.6769ZM203.828 32.135H195.686V27.6043H203.828V32.135Z" fill="#79962C"/>
<path d="M213.109 39.6769L221.553 20.3387H226.881L235.352 39.6769H229.723L223.11 23.0184H225.241L218.629 39.6769H213.109ZM217.727 35.9197L219.121 31.8863H228.466L229.859 35.9197H217.727Z" fill="#79962C"/>
<path d="M239.618 39.6769V20.3387H245.028V39.6769H239.618Z" fill="#79962C"/>
<path d="M251.61 39.6769V20.3387H256.063L266.611 33.2124H264.507V20.3387H269.808V39.6769H265.354L254.807 26.8031H256.911V39.6769H251.61Z" fill="#79962C"/>
</g>
<g clip-path="url(#clip1_18_601)">
<path d="M81.5778 39.6769L73.4078 20.3387H79.2553L86.141 37.08H82.6981L89.7479 20.3387H95.1035L86.9061 39.6769H81.5778Z" fill="#C9FA49"/>
<path d="M103.929 27.8253H112.809V31.914H103.929V27.8253ZM104.311 35.4501H114.312V39.6769H98.9556V20.3387H113.957V24.5654H104.311V35.4501Z" fill="#C9FA49"/>
<path d="M120.047 39.6769V20.3387H128.79C130.539 20.3387 132.042 20.6241 133.299 21.1951C134.574 21.766 135.558 22.5948 136.25 23.6814C136.942 24.7496 137.288 26.0204 137.288 27.4938C137.288 28.9488 136.942 30.2104 136.25 31.2786C135.558 32.3284 134.574 33.1387 133.299 33.7097C132.042 34.2622 130.539 34.5384 128.79 34.5384H123.052L125.457 32.2455V39.6769H120.047ZM131.878 39.6769L127.124 32.6322H132.889L137.671 39.6769H131.878ZM125.457 32.8256L123.052 30.3117H128.463C129.592 30.3117 130.43 30.063 130.976 29.5658C131.541 29.0685 131.823 28.3778 131.823 27.4938C131.823 26.5914 131.541 25.8915 130.976 25.3942C130.43 24.897 129.592 24.6483 128.463 24.6483H123.052L125.457 22.1344V32.8256Z" fill="#C9FA49"/>
<path d="M143.006 39.6769V20.3387H147.459L158.007 33.2124H155.903V20.3387H161.204V39.6769H156.75L146.203 26.8032H148.307V39.6769H143.006Z" fill="#C9FA49"/>
<path d="M177.289 40.0636C175.777 40.0636 174.374 39.8242 173.081 39.3454C171.805 38.8481 170.694 38.1482 169.747 37.2458C168.818 36.3433 168.089 35.2843 167.561 34.0688C167.033 32.8348 166.769 31.4812 166.769 30.0078C166.769 28.5344 167.033 27.1899 167.561 25.9744C168.089 24.7404 168.818 23.6722 169.747 22.7698C170.694 21.8673 171.805 21.1767 173.081 20.6978C174.374 20.2005 175.777 19.9519 177.289 19.9519C179.056 19.9519 180.631 20.265 182.016 20.8912C183.418 21.5174 184.584 22.4198 185.513 23.5985L182.07 26.7479C181.451 26.0112 180.768 25.4495 180.021 25.0627C179.292 24.676 178.473 24.4826 177.562 24.4826C176.779 24.4826 176.059 24.6115 175.403 24.8693C174.747 25.1272 174.183 25.5047 173.709 26.002C173.254 26.4809 172.889 27.061 172.616 27.7424C172.361 28.4239 172.234 29.179 172.234 30.0078C172.234 30.8366 172.361 31.5917 172.616 32.2731C172.889 32.9545 173.254 33.5439 173.709 34.0412C174.183 34.52 174.747 34.8884 175.403 35.1462C176.059 35.4041 176.779 35.533 177.562 35.533C178.473 35.533 179.292 35.3396 180.021 34.9528C180.768 34.5661 181.451 34.0043 182.07 33.2676L185.513 36.417C184.584 37.5773 183.418 38.4797 182.016 39.1244C180.631 39.7505 179.056 40.0636 177.289 40.0636Z" fill="#C9FA49"/>
<path d="M203.446 20.3387H208.856V39.6769H203.446V20.3387ZM196.068 39.6769H190.658V20.3387H196.068V39.6769ZM203.828 32.135H195.686V27.6043H203.828V32.135Z" fill="#C9FA49"/>
<path d="M213.109 39.6769L221.553 20.3387H226.881L235.352 39.6769H229.723L223.11 23.0184H225.241L218.629 39.6769H213.109ZM217.727 35.9197L219.121 31.8863H228.466L229.859 35.9197H217.727Z" fill="#C9FA49"/>
<path d="M239.618 39.6769V20.3387H245.028V39.6769H239.618Z" fill="#C9FA49"/>
<path d="M251.61 39.6769V20.3387H256.063L266.611 33.2124H264.507V20.3387H269.808V39.6769H265.354L254.807 26.8032H256.911V39.6769H251.61Z" fill="#C9FA49"/>
</g>
<defs>
<clipPath id="clip0_18_601">
<rect width="105.773" height="20.1117" fill="white" transform="translate(164.035 19.9519)"/>
</clipPath>
<clipPath id="clip1_18_601">
<rect width="90.627" height="20.1117" fill="white" transform="translate(73.4078 19.9519)"/>
</clipPath>
</defs>
</svg>
